<svg width="32" height="32" viewBox="0 0 15 15" >
<path fill-rule="evenodd" clip-rule="evenodd" d="M10.2468 9.62555H10.938L14.648 13.353C15.0068 13.7118 15.0068 14.298 14.648 14.6568C14.2893 15.0155 13.703 15.0155 13.3443 14.6568L9.62555 10.938V10.2468L9.3893 10.0018C8.1643 11.0518 6.49305 11.5943 4.7168 11.2968C2.2843 10.8855 0.341797 8.85555 0.0442974 6.40555C-0.410703 2.7043 2.7043 -0.410703 6.40555 0.0442974C8.85555 0.341797 10.8855 2.2843 11.2968 4.7168C11.5943 6.49305 11.0518 8.1643 10.0018 9.3893L10.2468 9.62555ZM1.75055 5.68805C1.75055 7.8668 3.5093 9.62555 5.68805 9.62555C7.8668 9.62555 9.62555 7.8668 9.62555 5.68805C9.62555 3.5093 7.8668 1.75055 5.68805 1.75055C3.5093 1.75055 1.75055 3.5093 1.75055 5.68805Z" />
</svg>
